<svg width="121" height="86" viewBox="0 0 121 86" fill="none" xmlns="http://www.w3.org/2000/svg">
<mask id="mask0_27_613" style="mask-type:luminance" maskUnits="userSpaceOnUse" x="0" y="0" width="81" height="86">
<path d="M0 0H80.7484V86H0V0Z" fill="white"/>
</mask>
<g mask="url(#mask0_27_613)">
<mask id="mask1_27_613" style="mask-type:luminance" maskUnits="userSpaceOnUse" x="-13" y="-12" width="106" height="110">
<path d="M-12.1533 67.8875L18.6735 -11.7297L92.6498 18.2922L61.8251 97.9094L-12.1533 67.8875Z" fill="white"/>
</mask>
<g mask="url(#mask1_27_613)">
<mask id="mask2_27_613" style="mask-type:luminance" maskUnits="userSpaceOnUse" x="0" y="0" width="81" height="86">
<path d="M3.26017 28.08C-5.25203 50.0633 4.40755 74.6084 24.836 82.8985C45.2644 91.1886 68.7243 80.0853 77.2365 58.102C85.7487 36.1165 76.0891 11.5736 55.6607 3.28132C35.2322 -5.00875 11.7724 6.09452 3.26017 28.08Z" fill="white"/>
</mask>
<g mask="url(#mask2_27_613)">
<path d="M-12.1533 67.8875L18.6735 -11.7297L92.6498 18.2922L61.8251 97.9094L-12.1533 67.8875Z" fill="#F4B5ED"/>
</g>
</g>
</g>
<mask id="mask3_27_613" style="mask-type:luminance" maskUnits="userSpaceOnUse" x="7" y="8" width="67" height="70">
<path d="M7.04492 8.32251H73.703V77.6773H7.04492V8.32251Z" fill="white"/>
</mask>
<g mask="url(#mask3_27_613)">
<mask id="mask4_27_613" style="mask-type:luminance" maskUnits="userSpaceOnUse" x="-6" y="-4" width="92" height="95">
<path d="M-5.05371 56.7039L28.9633 -3.84717L85.5532 29.4778L51.5341 90.0289L-5.05371 56.7039Z" fill="white"/>
</mask>
<g mask="url(#mask4_27_613)">
<mask id="mask5_27_613" style="mask-type:luminance" maskUnits="userSpaceOnUse" x="7" y="8" width="67" height="70">
<path d="M11.9535 26.4283C2.56066 43.1493 7.61379 64.1638 23.241 73.3663C38.8661 82.5689 59.1506 76.4743 68.5434 59.7533C77.9363 43.0323 72.8853 22.0177 57.258 12.8152C41.6308 3.6127 21.3485 9.70726 11.9535 26.4283Z" fill="white"/>
</mask>
<g mask="url(#mask5_27_613)">
<path d="M-5.05371 56.7039L28.9633 -3.84717L85.5532 29.4778L51.5341 90.0289L-5.05371 56.7039Z" fill="#FDFDFD"/>
</g>
</g>
</g>
<mask id="mask6_27_613" style="mask-type:luminance" maskUnits="userSpaceOnUse" x="12" y="14" width="56" height="59">
<path d="M12.4648 14.4258H67.7423V72.129H12.4648V14.4258Z" fill="white"/>
</mask>
<g mask="url(#mask6_27_613)">
<mask id="mask7_27_613" style="mask-type:luminance" maskUnits="userSpaceOnUse" x="2" y="4" width="76" height="78">
<path d="M2.80078 54.3438L30.92 4.29126L77.698 31.8381L49.5787 81.8907L2.80078 54.3438Z" fill="white"/>
</mask>
<g mask="url(#mask7_27_613)">
<mask id="mask8_27_613" style="mask-type:luminance" maskUnits="userSpaceOnUse" x="12" y="14" width="56" height="58">
<path d="M16.8598 29.3174C9.09484 43.1385 13.2716 60.5097 26.1891 68.117C39.1066 75.7244 55.8728 70.6853 63.6377 56.8642C71.4026 43.0409 67.2259 25.6719 54.3083 18.0645C41.3929 10.4572 24.6247 15.4962 16.8598 29.3174Z" fill="white"/>
</mask>
<g mask="url(#mask8_27_613)">
<path d="M2.80078 54.3438L30.92 4.29126L77.698 31.8381L49.5787 81.8907L2.80078 54.3438Z" fill="#F4B5ED"/>
</g>
</g>
</g>
<mask id="mask9_27_613" style="mask-type:luminance" maskUnits="userSpaceOnUse" x="18" y="62" width="19" height="18">
<path d="M18.9678 62.1418H36.8516V79.3418H18.9678V62.1418Z" fill="white"/>
</mask>
<g mask="url(#mask9_27_613)">
<mask id="mask10_27_613" style="mask-type:luminance" maskUnits="userSpaceOnUse" x="18" y="61" width="20" height="19">
<path d="M37.3931 63.3513L35.6382 79.9228L18.582 78.0307L20.337 61.4592L37.3931 63.3513Z" fill="white"/>
</mask>
<g mask="url(#mask10_27_613)">
<mask id="mask11_27_613" style="mask-type:luminance" maskUnits="userSpaceOnUse" x="19" y="62" width="18" height="18">
<path d="M36.5148 71.6371C36.9996 67.0618 33.5744 62.9287 28.8642 62.4064C24.1561 61.8841 19.9434 65.1697 19.4608 69.745C18.976 74.3202 22.4012 78.4534 27.1114 78.9757C31.8216 79.498 36.0321 76.2123 36.5148 71.6371Z" fill="white"/>
</mask>
<g mask="url(#mask11_27_613)">
<path d="M37.3931 63.3513L35.6382 79.9228L18.582 78.0307L20.337 61.4592L37.3931 63.3513Z" fill="#FDFDFD"/>
</g>
</g>
</g>
<path d="M27.8662 72.1384C27.1485 72.1384 26.7907 71.7136 26.7907 70.864C26.7907 70.2529 26.9707 69.5181 27.3327 68.662C28.2853 66.5879 29.3861 63.6598 30.6351 59.88C31.8883 56.0958 33.4676 52.8578 35.377 50.1703L44.319 31.3144C43.6013 31.3144 42.9154 31.4965 42.2613 31.8606C41.6051 32.2247 41.2791 32.5325 41.2791 32.7796C41.2791 33.265 40.6207 33.7549 39.3061 34.2447C37.9957 34.7302 37.2823 35.0336 37.1637 35.155C35.3728 35.6469 33.7047 36.1953 32.1593 36.8021C30.9675 38.1502 29.8053 39.494 28.6706 40.8334C27.5359 42.175 26.4901 43.5166 25.5375 44.856C25.419 44.9838 25.3004 45.0467 25.1819 45.0467C24.1086 46.2669 23.2131 47.1837 22.4976 47.7949C21.7863 48.4017 21.0115 48.9479 20.1774 49.4334C19.699 49.804 19.191 49.8972 18.6532 49.7108C18.1177 49.5266 18.0901 49.312 18.5686 49.0693C19.1613 48.8265 20.1139 47.9748 21.4222 46.5118C22.7368 45.0445 23.7529 43.9435 24.4706 43.2088C25.0633 42.8447 25.2687 42.849 25.0887 43.2175C24.913 43.5816 25.0633 43.5187 25.5375 43.0267L30.0085 37.1663L30.1948 36.9842C29.5957 36.6201 29.2972 35.6448 29.2972 34.054C29.2972 32.8359 29.5343 31.8584 30.0085 31.1237C30.0085 31.0023 30.1292 30.9417 30.3726 30.9417L34.1238 29.8493C34.4837 29.8493 34.725 29.7886 34.8436 29.6673C35.0807 29.4202 35.3474 29.0821 35.648 28.6529C35.9465 28.226 36.3339 27.6473 36.8081 26.9191L38.9504 23.9888L40.3815 21.9689C40.3815 21.6048 40.6482 21.1496 41.1859 20.5991C41.7278 20.0508 42.1766 19.6542 42.5323 19.4114C43.0065 18.6789 43.3325 18.098 43.5145 17.6689C43.6945 17.2419 44.0226 16.6632 44.4968 15.935C44.4968 15.8093 44.6746 15.7161 45.0303 15.6576C45.3901 15.5947 45.5722 15.5015 45.5722 15.3802C45.6908 14.1621 45.8982 13.5834 46.1988 13.6463C46.4973 13.7048 46.6476 13.5509 46.6476 13.1868C46.6476 12.8184 46.8847 12.5106 47.3589 12.2679L48.2565 11.1669C48.2565 11.0455 48.4343 10.8027 48.7899 10.4386V10.2566C48.7899 10.0138 48.7899 9.7104 48.7899 9.34629C48.7899 8.97784 48.9085 8.60723 49.1456 8.23661C49.3869 7.99387 49.569 7.8725 49.6875 7.8725C49.8061 7.8725 49.8653 7.8725 49.8653 7.8725C49.8653 7.75113 49.8336 7.66227 49.7722 7.60375C49.715 7.5409 49.6875 7.50839 49.6875 7.50839C49.6875 7.0229 49.9246 6.71948 50.3988 6.59811C50.8772 6.4724 51.1186 6.28601 51.1186 6.04327C51.3557 4.33324 52.7825 3.05234 55.4033 2.20274C58.0283 1.34881 60.3526 0.919678 62.3807 0.919678C64.4066 0.919678 65.4206 1.22311 65.4206 1.82996C65.4206 2.0792 65.0649 2.50617 64.3537 3.11302C63.9917 3.2344 63.3926 3.75456 62.5585 4.67351C61.7223 5.58813 60.9496 6.65446 60.2383 7.8725L58.8073 10.0745C58.6887 10.3173 58.5384 10.5925 58.3585 10.8981C58.1764 11.2059 57.969 11.479 57.7319 11.7217C56.8957 13.1846 55.7928 15.2284 54.421 17.8509C53.0492 20.4756 51.5885 23.3733 50.0432 26.5463L54.692 26.0001C55.0476 26.0001 55.1937 26.0608 55.1323 26.1822C55.0751 26.3036 55.2275 26.3036 55.5895 26.1822C56.1823 26.1822 56.5972 26.0933 56.8343 25.9134C57.0756 25.7292 57.4948 25.5753 58.0875 25.454C59.0401 25.3326 60.1452 25.2437 61.3984 25.1852C62.6516 25.1224 63.636 25.0898 64.3537 25.0898C64.8279 25.0898 65.4206 25.0898 66.1319 25.0898C66.8474 25.0898 67.3872 25.1505 67.7492 25.2719C67.9863 25.2719 68.0731 25.3651 68.0117 25.5493C67.9546 25.7292 67.9863 25.8181 68.1049 25.8181C68.342 25.8181 68.5494 25.7574 68.7315 25.636C68.9114 25.5146 69.121 25.454 69.3581 25.454C69.4766 25.3326 69.6841 25.3044 69.9847 25.3673C70.2832 25.4258 70.4928 25.454 70.6113 25.454L72.398 26.0001C73.1135 26.1215 73.5009 26.5506 73.5581 27.2832C73.6195 28.0179 73.2914 28.2607 72.5758 28.0114C72.1016 27.7687 71.6825 27.6473 71.3226 27.6473H66.8516C66.0154 27.6473 65.2385 27.6473 64.523 27.6473C63.8117 27.6473 63.0962 27.708 62.3807 27.8294C62.1436 27.9507 62.0525 27.8294 62.1097 27.4652C62.1711 27.1011 62.0843 26.9191 61.8472 26.9191C61.7287 26.9191 61.5466 27.073 61.3053 27.3786C61.0682 27.6798 60.8904 27.8294 60.7718 27.8294L59.8827 28.3842C57.9732 28.8697 55.9452 29.3877 53.7944 29.936C51.6478 30.4865 49.5626 31.0674 47.5367 31.6786C45.7458 35.4649 44.048 39.0367 42.4391 42.3939C40.8303 45.7467 39.6067 48.3389 38.7726 50.1703C38.5355 50.905 38.417 51.332 38.417 51.4534C38.417 52.4308 38.9525 52.9185 40.0258 52.9185C40.7414 52.9185 41.459 52.7342 42.1766 52.3636L43.9633 51.6354C46.8254 48.9479 49.8061 46.6895 52.9053 44.856C53.0238 44.856 53.1106 44.8278 53.1678 44.7693C53.2292 44.7064 53.3202 44.6739 53.4387 44.6739C53.7986 44.6739 54.0399 44.8885 54.1585 45.3154C54.277 45.7446 54.1543 46.0784 53.7944 46.3211C50.3395 48.276 47.1218 50.7771 44.1412 53.8288C44.0226 54.078 43.9041 54.3229 43.7855 54.5657C43.667 54.8084 43.4849 55.0511 43.2436 55.2939C43.0065 55.5431 42.6784 55.9744 42.2613 56.5856C41.8422 57.1925 41.6347 57.5566 41.6347 57.678C41.5162 58.0421 41.3659 58.1634 41.1859 58.0421C41.0102 57.9207 40.6228 58.1027 40.0258 58.5882C39.9073 58.7161 39.8163 58.961 39.7549 59.3251C39.6977 59.6892 39.6109 59.997 39.4924 60.2441C39.2553 60.6082 39.0139 60.8834 38.7726 61.0677C38.5355 61.2476 38.417 61.3971 38.417 61.5185C38.2984 62.0105 38.0888 62.2879 37.7903 62.3507C37.4897 62.4093 37.223 62.5588 36.9859 62.8015C36.8674 62.8015 36.8081 62.834 36.8081 62.8969C36.8081 62.9554 36.8081 62.9836 36.8081 62.9836C36.8081 64.0824 36.6895 64.5701 36.4524 64.4487C36.2153 64.3273 36.0333 64.4531 35.9105 64.8215C35.4363 65.307 35.0807 65.5497 34.8436 65.5497C34.1259 65.7925 33.855 65.9789 34.0307 66.1046C34.2106 66.2259 34.3905 66.3191 34.5726 66.382C34.7525 66.4405 34.543 66.6507 33.946 67.0148C33.7089 67.1362 33.4676 67.4722 33.2262 68.0205C32.9891 68.571 32.752 68.9655 32.5149 69.2082C32.1593 69.4574 31.7994 69.6417 31.4395 69.763C31.0839 69.8844 30.7875 70.1271 30.5504 70.4913C29.4771 71.5901 28.5817 72.1384 27.8662 72.1384ZM38.0613 29.1124C38.5355 28.9911 38.9801 28.8697 39.3992 28.7483C39.8163 28.6269 40.265 28.4449 40.7456 28.2021L46.1057 27.2832C47.5388 24.3529 48.7921 21.698 49.8653 19.3161C50.9365 16.9363 51.7113 15.1959 52.1855 14.0971C52.1855 14.0971 52.0945 14.0082 51.9145 13.8283C51.7388 13.6441 51.652 13.4296 51.652 13.1868C51.4149 13.0654 51.1461 12.8834 50.8476 12.6406C50.547 12.3936 50.2803 12.2072 50.0432 12.0858L48.4343 13.733L46.4698 16.4812C46.4698 16.6025 46.3195 16.6957 46.021 16.7586C45.7204 16.8171 45.5722 16.906 45.5722 17.0273C45.5722 17.398 45.4219 17.7642 45.1234 18.1283C44.8228 18.4925 44.5561 18.6138 44.319 18.4925L43.6077 20.3217C43.6077 20.6923 43.4256 20.9979 43.0658 21.2406L41.8125 22.8878C41.8125 23.0092 41.7808 23.1024 41.7194 23.1652C41.6622 23.2238 41.6347 23.3776 41.6347 23.6247C41.5162 23.8675 41.3383 24.1752 41.1012 24.5437C40.8641 24.9078 40.5635 25.2719 40.2037 25.636C40.0851 25.636 40.0258 25.6685 40.0258 25.7314C40.0258 25.7899 39.9666 25.8181 39.848 25.8181L39.3145 26.9191C38.834 27.1618 38.5355 27.2832 38.417 27.2832L38.2391 27.6473C38.2391 28.382 38.1799 28.8697 38.0613 29.1124Z" fill="#500D3D"/>
<path d="M47.4105 58.5458C47.004 58.5458 46.8008 58.3767 46.8008 58.0429C46.8008 57.8869 46.8452 57.7308 46.9363 57.5748C47.0252 57.4187 47.0972 57.2887 47.148 57.1847L50.5943 50.0411C52.0614 46.9852 52.7959 45.2881 52.7959 44.9522C52.7959 44.5881 52.9738 44.406 53.3294 44.406C53.8078 44.406 54.0492 44.6531 54.0492 45.1429C54.0492 45.403 53.9327 45.8191 53.702 46.3913C53.4755 46.9592 53.1876 47.618 52.8383 48.3679C52.2286 49.716 51.7205 50.752 51.3141 51.4802C52.0762 50.5743 52.8489 49.7182 53.6342 48.9141C54.4175 48.1122 55.2135 47.3493 56.0222 46.6254C58.427 44.4754 60.273 43.4004 61.5601 43.4004C62.4449 43.4004 62.8895 43.8295 62.8895 44.6835C62.8895 45.5114 62.6228 45.9232 62.0935 45.9232C61.8395 45.9232 61.649 45.7043 61.5262 45.2643C61.4457 44.9522 61.2679 44.7962 60.9927 44.7962C60.563 44.7962 59.7268 45.2773 58.4863 46.2353C57.1187 47.2713 55.747 48.5023 54.3709 49.9284C52.9928 51.3502 51.5342 53.1621 49.9931 55.3641L48.0963 58.0776C47.9947 58.2098 47.8974 58.3203 47.8084 58.407C47.7174 58.4981 47.584 58.5458 47.4105 58.5458Z" fill="#500D3D"/>
<path d="M62.5428 57.965C61.08 57.965 60.3496 57.2519 60.3496 55.8236C60.3496 54.8938 60.5698 53.8904 61.0101 52.8154C61.4504 51.7404 62.0474 50.6914 62.8053 49.6684C63.5674 48.6454 64.4162 47.7156 65.354 46.8769C66.2897 46.0338 67.2508 45.3597 68.2331 44.8569C69.2196 44.3497 70.168 44.094 71.0782 44.094C72.6977 44.094 73.5085 44.9132 73.5085 46.5474C73.5085 47.6051 73.2566 48.1339 72.7549 48.1339C72.2976 48.1339 72.069 47.915 72.069 47.475C72.069 47.2973 72.1113 47.1109 72.196 46.9202C72.2849 46.7251 72.3315 46.5084 72.3315 46.27C72.3315 45.5483 71.8509 45.1863 70.8919 45.1863C69.3508 45.1863 67.4159 46.3914 65.0915 48.8015C64.5327 49.3975 63.9865 50.0975 63.4573 50.8994C62.9259 51.697 62.4877 52.5076 62.1448 53.3269C61.8061 54.1418 61.6367 54.9112 61.6367 55.6329C61.6367 56.333 62.0135 56.6819 62.7714 56.6819C63.4319 56.6819 64.1347 56.4782 64.8799 56.0664C65.625 55.6502 66.277 55.2211 66.8359 54.7746C67.9473 53.925 69.0841 52.7612 70.2484 51.2809C70.422 51.0728 70.6485 50.8019 70.9258 50.466C71.2074 50.1322 71.527 49.7551 71.8827 49.339C72.0055 49.2132 72.1558 49.1482 72.3315 49.1482C72.7379 49.1482 72.9411 49.3563 72.9411 49.7724L71.5016 51.9831C70.5363 53.4352 70.0536 54.6251 70.0536 55.5549C70.0536 56.2311 70.3691 56.5692 71.002 56.5692C71.5376 56.5692 72.1219 56.4283 72.7549 56.1444C73.3857 55.8561 73.9022 55.5701 74.3044 55.2861C75.1174 54.7443 75.9641 54.0638 76.8448 53.2488C77.7297 52.4296 78.5807 51.606 79.3936 50.7781C79.4888 50.674 79.6391 50.622 79.8424 50.622C80.2255 50.622 80.4182 50.7781 80.4182 51.0902C80.4182 51.3741 80.2403 51.697 79.8847 52.0611C78.8728 53.0971 77.9625 53.9836 77.1496 54.7226C76.3409 55.4573 75.5704 56.0577 74.8379 56.5258C74.3574 56.8098 73.7625 57.1067 73.0512 57.4188C72.3442 57.7309 71.5376 57.8869 70.6294 57.8869C69.3868 57.8869 68.7665 57.2151 68.7665 55.867C68.7665 55.3468 68.8301 54.9199 68.9613 54.5839C66.6581 56.8379 64.5179 57.965 62.5428 57.965Z" fill="#500D3D"/>
<path d="M82.8042 58.1209C81.46 58.1209 80.41 57.7178 79.6542 56.9159C78.8963 56.114 78.5195 55.039 78.5195 53.6909C78.5195 51.3631 79.5907 48.8252 81.7373 46.0792C82.855 44.6812 83.9855 43.6149 85.1328 42.8802C86.2845 42.1411 87.3641 41.7705 88.376 41.7705C89.2609 41.7705 89.9446 42.0826 90.4252 42.7068C90.9036 43.3267 91.1449 44.1004 91.1449 45.0302C91.1449 45.6024 91.0708 46.1875 90.9248 46.7814C90.8232 47.1932 90.6199 47.3969 90.3151 47.3969C89.8346 47.3969 89.5953 47.126 89.5953 46.582C89.5953 46.3523 89.6377 46.0488 89.7224 45.6717C89.8113 45.2968 89.8578 44.9262 89.8578 44.562C89.8578 43.5282 89.3625 43.0102 88.376 43.0102C87.8446 43.0102 87.2074 43.2053 86.4623 43.5911C85.7171 43.979 84.9762 44.4905 84.2437 45.1255C83.5091 45.7627 82.8656 46.4823 82.3131 47.2842C80.6132 49.6379 79.7643 51.7468 79.7643 53.6128C79.7643 55.7628 80.7127 56.8378 82.6095 56.8378C83.7992 56.8378 84.9381 56.6515 86.022 56.2743C87.1101 55.8994 88.3887 55.117 89.8578 53.9249C90.766 53.1967 91.4498 52.6137 91.907 52.1737C92.3643 51.7359 92.8575 51.27 93.3889 50.778C93.5413 50.6739 93.6789 50.6219 93.8038 50.6219C93.9266 50.6219 94.0515 50.6631 94.1764 50.7433C94.3055 50.8191 94.3711 50.934 94.3711 51.0901C94.3711 51.374 94.1192 51.7749 93.6175 52.2951C93.1814 52.7069 92.7242 53.1404 92.2457 53.5955C91.7652 54.0463 91.0094 54.6748 89.9764 55.4768C88.8586 56.3567 87.6732 57.0177 86.4199 57.462C85.1709 57.8998 83.9664 58.1209 82.8042 58.1209Z" fill="#500D3D"/>
<path d="M102.568 59.404C102.314 59.404 102.124 59.248 102.001 58.9359L101.467 57.6095C100.909 56.2397 100.108 54.8765 99.071 53.5175C98.038 52.1608 97.0155 50.9124 96.0057 49.7724C95.4468 50.9341 94.9515 51.9831 94.5239 52.9194C94.0941 53.8513 93.7025 54.7226 93.3468 55.5375C92.9912 56.3524 92.6123 57.1998 92.2122 58.0776C92.1106 58.3377 91.9327 58.4677 91.6787 58.4677C91.249 58.4677 91.0352 58.2857 91.0352 57.9216C91.0352 57.7655 91.0902 57.5661 91.2045 57.3234C91.3167 57.0763 91.4247 56.8249 91.5263 56.5692C92.1868 54.935 93.0378 52.993 94.0835 50.7433C95.1335 48.4893 96.3296 46.0272 97.6739 43.3571C100.225 38.2595 102.274 34.6097 103.821 32.4077C104.171 31.8875 104.516 31.4237 104.855 31.0119C105.197 30.5958 105.498 30.3877 105.752 30.3877C106.209 30.3877 106.438 30.6348 106.438 31.1246C106.438 31.8008 105.475 33.5867 103.55 36.4823C103.398 36.7207 103.131 37.1108 102.755 37.6526C102.376 38.1966 101.971 38.7861 101.544 39.4212C101.114 40.0519 100.716 40.6327 100.35 41.1637C99.9813 41.6969 99.7336 42.0653 99.6045 42.2734L96.8779 47.8304C102.996 44.1785 106.286 42.3514 106.743 42.3514C107.143 42.3514 107.344 42.5833 107.344 43.045C107.344 43.3354 107.194 43.5434 106.895 43.6691C105.777 44.2132 104.897 44.6553 104.253 44.9956C103.61 45.3315 102.958 45.6783 102.297 46.0359C101.743 46.4 101.029 46.8421 100.155 47.3623C99.2849 47.8781 98.2539 48.472 97.0642 49.1482C97.6739 49.8201 98.3301 50.6025 99.0372 51.4976C99.7485 52.3884 100.411 53.3073 101.027 54.2544C101.647 55.1972 102.162 56.0707 102.568 56.8726C102.975 57.6745 103.178 58.3225 103.178 58.8145C103.178 59.2068 102.975 59.404 102.568 59.404Z" fill="#500D3D"/>
<path d="M106.243 60.2535C105.763 60.2535 105.523 59.8655 105.523 59.0918C105.523 57.9518 106.15 55.96 107.403 53.1099C108.657 50.262 110.522 46.5342 113 41.9265C112.035 41.9265 111.129 42.0522 110.282 42.2992C109.436 42.542 108.987 42.8432 108.936 43.2009C108.913 43.3049 108.855 43.4046 108.767 43.4956C108.682 43.5888 108.549 43.6343 108.369 43.6343C107.962 43.6343 107.759 43.4263 107.759 43.0101C107.759 42.3404 108.278 41.7856 109.317 41.3456C110.354 40.9013 111.809 40.6781 113.678 40.6781L116.294 36.248C116.474 35.9663 116.667 35.6498 116.87 35.3031C117.073 34.952 117.298 34.5705 117.548 34.1587C117.802 33.7946 118.092 33.6125 118.42 33.6125C118.623 33.6125 118.775 33.6711 118.877 33.7859C118.979 33.903 119.029 34.0265 119.029 34.1587C119.029 34.5467 118.473 35.5805 117.361 37.2623C115.973 39.3603 115.227 40.5004 115.126 40.6781C115.503 40.6781 116.07 40.7128 116.828 40.7821C117.59 40.8471 118.488 40.9425 119.521 41.0682C119.897 41.092 120.088 41.2849 120.088 41.649C120.088 42.0652 119.861 42.2732 119.411 42.2732C119.228 42.2732 118.873 42.2429 118.344 42.1779C117.812 42.1085 117.243 42.0522 116.633 42.0045C116.028 41.9525 115.511 41.9395 115.084 41.9611L114.516 42.0045C109.378 51.246 106.823 56.9938 106.853 59.2478L106.887 59.5513V59.6293C106.887 60.0454 106.671 60.2535 106.243 60.2535Z" fill="#500D3D"/>
</svg>
