<svg width="81" height="84" viewBox="0 0 81 84" fill="none" xmlns="http://www.w3.org/2000/svg">
<mask id="mask0_307_257" style="mask-type:luminance" maskUnits="userSpaceOnUse" x="0" y="0" width="81" height="84">
<path d="M0 0H80.7484V84H0V0Z" fill="white"/>
</mask>
<g mask="url(#mask0_307_257)">
<mask id="mask1_307_257" style="mask-type:luminance" maskUnits="userSpaceOnUse" x="-13" y="-12" width="106" height="108">
<path d="M-12.0273 66.22L18.7995 -11.5435L92.7758 17.7803L61.9511 95.5438L-12.0273 66.22Z" fill="white"/>
</mask>
<g mask="url(#mask1_307_257)">
<mask id="mask2_307_257" style="mask-type:luminance" maskUnits="userSpaceOnUse" x="0" y="0" width="81" height="84">
<path d="M3.38517 27.3404C-5.12703 48.8146 4.53255 72.7867 24.961 80.884C45.3894 88.9813 68.8493 78.1384 77.3615 56.6642C85.8737 35.19 76.2141 11.2178 55.7857 3.12053C35.3572 -4.97675 11.8974 5.86619 3.38517 27.3404Z" fill="white"/>
</mask>
<g mask="url(#mask2_307_257)">
<path d="M-12.0283 66.2193L18.7985 -11.5442L92.7748 17.7796L61.9501 95.5431L-12.0283 66.2193Z" fill="#F4B5ED"/>
</g>
</g>
</g>
<mask id="mask3_307_257" style="mask-type:luminance" maskUnits="userSpaceOnUse" x="7" y="8" width="67" height="68">
<path d="M7.0459 8.13013H73.704V75.8721H7.0459V8.13013Z" fill="white"/>
</mask>
<g mask="url(#mask3_307_257)">
<mask id="mask4_307_257" style="mask-type:luminance" maskUnits="userSpaceOnUse" x="-5" y="-4" width="91" height="92">
<path d="M-4.92773 55.3004L29.0893 -3.84253L85.6792 28.7054L51.6601 87.8483L-4.92773 55.3004Z" fill="white"/>
</mask>
<g mask="url(#mask4_307_257)">
<mask id="mask5_307_257" style="mask-type:luminance" maskUnits="userSpaceOnUse" x="7" y="8" width="67" height="68">
<path d="M12.0829 25.7283C2.68798 42.0604 7.74111 62.5862 23.3683 71.5726C38.9934 80.5611 59.2779 74.6083 68.6707 58.2761C78.0636 41.944 73.0126 21.4182 57.3854 12.4318C41.7581 3.44328 21.4758 9.3961 12.0829 25.7283Z" fill="white"/>
</mask>
<g mask="url(#mask5_307_257)">
<path d="M-4.92676 55.3002L29.0903 -3.84277L85.6802 28.7051L51.661 87.848L-4.92676 55.3002Z" fill="white"/>
</g>
</g>
</g>
<mask id="mask6_307_257" style="mask-type:luminance" maskUnits="userSpaceOnUse" x="13" y="14" width="55" height="56">
<path d="M13.0068 14.0918H67.7423V69.9111H13.0068V14.0918Z" fill="white"/>
</mask>
<g mask="url(#mask6_307_257)">
<mask id="mask7_307_257" style="mask-type:luminance" maskUnits="userSpaceOnUse" x="2" y="4" width="76" height="76">
<path d="M2.92578 52.9969L31.045 4.1084L77.823 31.0146L49.7016 79.9032L2.92578 52.9969Z" fill="white"/>
</mask>
<g mask="url(#mask7_307_257)">
<mask id="mask8_307_257" style="mask-type:luminance" maskUnits="userSpaceOnUse" x="13" y="14" width="55" height="56">
<path d="M16.9848 28.5521C9.21984 42.0539 13.3966 59.0212 26.3141 66.4495C39.2316 73.8799 55.9978 68.9581 63.7627 55.4584C71.5276 41.9587 67.3509 24.9914 54.4333 17.561C41.5158 10.1327 24.7497 15.0524 16.9848 28.5521Z" fill="white"/>
</mask>
<g mask="url(#mask8_307_257)">
<path d="M2.92676 52.9969L31.046 4.1084L77.8239 31.0146L49.7026 79.9032L2.92676 52.9969Z" fill="#F4B5ED"/>
</g>
</g>
</g>
<mask id="mask9_307_257" style="mask-type:luminance" maskUnits="userSpaceOnUse" x="19" y="60" width="18" height="18">
<path d="M19.5098 60.6975H36.8517V77.4975H19.5098V60.6975Z" fill="white"/>
</mask>
<g mask="url(#mask9_307_257)">
<mask id="mask10_307_257" style="mask-type:luminance" maskUnits="userSpaceOnUse" x="18" y="59" width="20" height="19">
<path d="M37.5181 61.7941L35.7632 77.9781L18.707 76.13L20.462 59.946L37.5181 61.7941Z" fill="white"/>
</mask>
<g mask="url(#mask10_307_257)">
<mask id="mask11_307_257" style="mask-type:luminance" maskUnits="userSpaceOnUse" x="19" y="60" width="18" height="18">
<path d="M36.6409 69.8852C37.1236 65.4142 33.6984 61.3772 28.9882 60.867C24.2801 60.3568 20.0674 63.5661 19.5848 68.035C19.1 72.5059 22.5252 76.5408 27.2354 77.0531C31.9456 77.5633 36.1562 74.354 36.6409 69.8852Z" fill="white"/>
</mask>
<g mask="url(#mask11_307_257)">
<path d="M37.5181 61.7924L35.7632 77.9764L18.707 76.1283L20.462 59.9443L37.5181 61.7924Z" fill="white"/>
</g>
</g>
</g>
<path d="M27.9912 70.3738C27.2735 70.3738 26.9157 69.9589 26.9157 69.129C26.9157 68.5321 27.0957 67.8144 27.4577 66.9782C28.4103 64.9523 29.5111 62.0923 30.7601 58.4004C32.0133 54.7042 33.5926 51.5415 35.502 48.9165L44.444 30.4992C43.7263 30.4992 43.0404 30.677 42.3863 31.0327C41.7301 31.3883 41.4041 31.6889 41.4041 31.9302C41.4041 32.4044 40.7457 32.8829 39.4311 33.3613C38.1207 33.8355 37.4073 34.1318 37.2887 34.2504C35.4978 34.7309 33.8297 35.2665 32.2843 35.8593C31.0925 37.176 29.9303 38.4885 28.7956 39.7968C27.6609 41.1071 26.6151 42.4175 25.6625 43.7258C25.544 43.8507 25.4254 43.9121 25.3069 43.9121C24.2336 45.1039 23.3381 45.9994 22.6226 46.5964C21.9113 47.1891 21.1365 47.7226 20.3024 48.1968C19.824 48.5588 19.316 48.6498 18.7782 48.4677C18.2427 48.2878 18.2151 48.0782 18.6936 47.8411C19.2863 47.604 20.2389 46.7721 21.5472 45.3431C22.8618 43.91 23.8779 42.8346 24.5956 42.1169C25.1883 41.7613 25.3937 41.7655 25.2137 42.1254C25.038 42.481 25.1883 42.4196 25.6625 41.9391L30.1335 36.2149L30.3198 36.0371C29.7207 35.6814 29.4222 34.7288 29.4222 33.175C29.4222 31.9853 29.6593 31.0305 30.1335 30.3129C30.1335 30.1943 30.2542 30.1351 30.4976 30.1351L34.2488 29.0681C34.6087 29.0681 34.85 29.0089 34.9686 28.8903C35.2057 28.649 35.4724 28.3187 35.773 27.8996C36.0715 27.4825 36.4589 26.9173 36.9331 26.206L39.0754 23.3439L40.5065 21.371C40.5065 21.0153 40.7732 20.5708 41.3109 20.0331C41.8528 19.4975 42.3016 19.1101 42.6573 18.873C43.1315 18.1574 43.4575 17.5901 43.6395 17.171C43.8195 16.7539 44.1476 16.1887 44.6218 15.4774C44.6218 15.3546 44.7996 15.2636 45.1553 15.2064C45.5151 15.1451 45.6972 15.054 45.6972 14.9355C45.8157 13.7458 46.0232 13.1805 46.3238 13.2419C46.6223 13.2991 46.7726 13.1488 46.7726 12.7931C46.7726 12.4333 47.0097 12.1327 47.4839 11.8956L48.3815 10.8202C48.3815 10.7016 48.5593 10.4645 48.9149 10.1089V9.93104C48.9149 9.69394 48.9149 9.39757 48.9149 9.04192C48.9149 8.68205 49.0335 8.32005 49.2706 7.95805C49.5119 7.72096 49.694 7.60241 49.8125 7.60241C49.9311 7.60241 49.9903 7.60241 49.9903 7.60241C49.9903 7.48386 49.9586 7.39707 49.8972 7.33991C49.84 7.27852 49.8125 7.24676 49.8125 7.24676C49.8125 6.77257 50.0496 6.4762 50.5238 6.35765C51.0022 6.23487 51.2436 6.05281 51.2436 5.81571C51.4807 4.14545 52.9075 2.89434 55.5282 2.06451C58.1532 1.23043 60.4776 0.811279 62.5057 0.811279C64.5316 0.811279 65.5456 1.10765 65.5456 1.70039C65.5456 1.94384 65.1899 2.36088 64.4787 2.95362C64.1167 3.07217 63.5176 3.58023 62.6835 4.47781C61.8473 5.37116 61.0746 6.41269 60.3633 7.60241L58.9323 9.75321C58.8137 9.99031 58.6634 10.2592 58.4835 10.5577C58.3014 10.8583 58.094 11.125 57.8569 11.3621C57.0207 12.791 55.9178 14.7873 54.546 17.3488C53.1742 19.9124 51.7135 22.7427 50.1682 25.8419L54.817 25.3085C55.1726 25.3085 55.3187 25.3677 55.2573 25.4863C55.2001 25.6048 55.3525 25.6048 55.7145 25.4863C56.3073 25.4863 56.7222 25.3995 56.9593 25.2238C57.2006 25.0438 57.6198 24.8935 58.2125 24.775C59.1651 24.6564 60.2702 24.5696 61.5234 24.5125C62.7766 24.4511 63.761 24.4193 64.4787 24.4193C64.9528 24.4193 65.5456 24.4193 66.2569 24.4193C66.9724 24.4193 67.5122 24.4786 67.8742 24.5972C68.1113 24.5972 68.1981 24.6882 68.1367 24.8681C68.0796 25.0438 68.1113 25.1306 68.2299 25.1306C68.467 25.1306 68.6744 25.0714 68.8565 24.9528C69.0364 24.8343 69.246 24.775 69.4831 24.775C69.6016 24.6564 69.8091 24.6289 70.1097 24.6903C70.4082 24.7475 70.6178 24.775 70.7363 24.775L72.523 25.3085C73.2385 25.427 73.6259 25.8462 73.6831 26.5617C73.7445 27.2793 73.4164 27.5164 72.7008 27.273C72.2266 27.0359 71.8075 26.9173 71.4476 26.9173H66.9766C66.1404 26.9173 65.3635 26.9173 64.648 26.9173C63.9367 26.9173 63.2212 26.9766 62.5057 27.0952C62.2686 27.2137 62.1775 27.0952 62.2347 26.7395C62.2961 26.3839 62.2093 26.206 61.9722 26.206C61.8537 26.206 61.6716 26.3563 61.4303 26.6548C61.1932 26.9491 61.0153 27.0952 60.8968 27.0952L60.0077 27.6371C58.0982 28.1113 56.0702 28.6172 53.9194 29.1528C51.7728 29.6905 49.6876 30.2579 47.6617 30.8548C45.8708 34.5531 44.173 38.0418 42.5641 41.321C40.9553 44.5959 39.7317 47.1277 38.8976 48.9165C38.6605 49.6342 38.542 50.0512 38.542 50.1698C38.542 51.1245 39.0775 51.6008 40.1508 51.6008C40.8664 51.6008 41.584 51.4209 42.3016 51.0589L44.0883 50.3476C46.9504 47.7226 49.9311 45.5167 53.0303 43.7258C53.1488 43.7258 53.2356 43.6983 53.2928 43.6411C53.3542 43.5797 53.4452 43.548 53.5637 43.548C53.9236 43.548 54.1649 43.7575 54.2835 44.1746C54.402 44.5937 54.2793 44.9198 53.9194 45.1568C50.4645 47.0663 47.2468 49.5093 44.2662 52.4899C44.1476 52.7334 44.0291 52.9726 43.9105 53.2097C43.792 53.4468 43.6099 53.6839 43.3686 53.921C43.1315 54.1644 42.8033 54.5857 42.3863 55.1827C41.9672 55.7754 41.7597 56.131 41.7597 56.2496C41.6412 56.6052 41.4908 56.7238 41.3109 56.6052C41.1352 56.4867 40.7478 56.6645 40.1508 57.1387C40.0323 57.2636 39.9413 57.5028 39.8799 57.8585C39.8227 58.2141 39.7359 58.5147 39.6174 58.756C39.3803 59.1117 39.1389 59.3805 38.8976 59.5605C38.6605 59.7362 38.542 59.8822 38.542 60.0008C38.4234 60.4813 38.2138 60.7523 37.9153 60.8137C37.6147 60.8709 37.348 61.0169 37.1109 61.254C36.9924 61.254 36.9331 61.2858 36.9331 61.3472C36.9331 61.4043 36.9331 61.4318 36.9331 61.4318C36.9331 62.5051 36.8145 62.9814 36.5774 62.8629C36.3403 62.7443 36.1583 62.8671 36.0355 63.227C35.5613 63.7012 35.2057 63.9383 34.9686 63.9383C34.2509 64.1754 33.98 64.3575 34.1557 64.4802C34.3356 64.5988 34.5155 64.6898 34.6976 64.7512C34.8775 64.8084 34.668 65.0137 34.071 65.3693C33.8339 65.4879 33.5926 65.816 33.3512 66.3516C33.1141 66.8893 32.877 67.2746 32.6399 67.5117C32.2843 67.7551 31.9244 67.9351 31.5645 68.0536C31.2089 68.1722 30.9125 68.4093 30.6754 68.7649C29.6021 69.8382 28.7067 70.3738 27.9912 70.3738ZM38.1863 28.3484C38.6605 28.2298 39.1051 28.1113 39.5242 27.9927C39.9413 27.8742 40.39 27.6964 40.8706 27.4593L46.2307 26.5617C47.6638 23.6996 48.9171 21.1063 49.9903 18.7798C51.0615 16.4554 51.8363 14.7555 52.3105 13.6822C52.3105 13.6822 52.2195 13.5955 52.0395 13.4197C51.8638 13.2398 51.777 13.0302 51.777 12.7931C51.5399 12.6746 51.2711 12.4968 50.9726 12.2597C50.672 12.0183 50.4053 11.8363 50.1682 11.7177L48.5593 13.3266L46.5948 16.0109C46.5948 16.1294 46.4445 16.2205 46.146 16.2818C45.8454 16.339 45.6972 16.4258 45.6972 16.5443C45.6972 16.9063 45.5469 17.2641 45.2484 17.6197C44.9478 17.9754 44.6811 18.0939 44.444 17.9754L43.7327 19.7621C43.7327 20.1241 43.5506 20.4226 43.1907 20.6597L41.9375 22.2685C41.9375 22.3871 41.9058 22.4781 41.8444 22.5395C41.7872 22.5967 41.7597 22.747 41.7597 22.9883C41.6412 23.2254 41.4633 23.526 41.2262 23.8859C40.9891 24.2415 40.6885 24.5972 40.3287 24.9528C40.2101 24.9528 40.1508 24.9846 40.1508 25.046C40.1508 25.1031 40.0916 25.1306 39.973 25.1306L39.4395 26.206C38.959 26.4431 38.6605 26.5617 38.542 26.5617L38.3641 26.9173C38.3641 27.635 38.3049 28.1113 38.1863 28.3484Z" fill="#500D3D"/>
</svg>
